REM DIRINDEX 1\2,1\3,1\4,1\5,1\6,1\7,1\8
REM DIRNAME folder01,folder02,folder03,folder04,folder05,folder06,folder07,folder08
TITLE ""
FILE "41_Ch9_EatingOut_Shopping_Words.mp3" MP3
  TRACK 01 AUDIO
    TITLE "0:"
    INDEX 01 00:00:00
  TRACK 02 AUDIO
    TITLE "8:cjc152_2216"
    INDEX 01 00:00:29
  TRACK 03 AUDIO
    TITLE "0:"
    INDEX 01 00:04:11
  TRACK 04 AUDIO
    TITLE "8:cjc152_2217"
    INDEX 01 00:04:70
  TRACK 05 AUDIO
    TITLE "0:"
    INDEX 01 00:06:02
  TRACK 06 AUDIO
    TITLE "2:cjc152_2218"
    INDEX 01 00:06:69
  TRACK 07 AUDIO
    TITLE "0:"
    INDEX 01 00:08:19
  TRACK 08 AUDIO
    TITLE "2:cjc152_2219"
    INDEX 01 00:08:48
  TRACK 09 AUDIO
    TITLE "0:"
    INDEX 01 00:10:06
  TRACK 10 AUDIO
    TITLE "2:cjc152_2220"
    INDEX 01 00:10:74
  TRACK 11 AUDIO
    TITLE "0:"
    INDEX 01 00:12:38
  TRACK 12 AUDIO
    TITLE "2:cjc152_2221"
    INDEX 01 00:12:69
  TRACK 13 AUDIO
    TITLE "0:"
    INDEX 01 00:14:23
  TRACK 14 AUDIO
    TITLE "2:cjc152_2222"
    INDEX 01 00:15:15
  TRACK 15 AUDIO
    TITLE "0:"
    INDEX 01 00:16:53
  TRACK 16 AUDIO
    TITLE "2:cjc152_2223"
    INDEX 01 00:17:10
  TRACK 17 AUDIO
    TITLE "0:"
    INDEX 01 00:18:35
  TRACK 18 AUDIO
    TITLE "2:cjc152_2224"
    INDEX 01 00:19:26
  TRACK 19 AUDIO
    TITLE "0:"
    INDEX 01 00:20:36
  TRACK 20 AUDIO
    TITLE "2:cjc152_2225"
    INDEX 01 00:20:65
  TRACK 21 AUDIO
    TITLE "0:"
    INDEX 01 00:22:01
  TRACK 22 AUDIO
    TITLE "2:cjc152_2226"
    INDEX 01 00:22:70
  TRACK 23 AUDIO
    TITLE "0:"
    INDEX 01 00:24:00
  TRACK 24 AUDIO
    TITLE "2:cjc152_2227"
    INDEX 01 00:24:29
  TRACK 25 AUDIO
    TITLE "0:"
    INDEX 01 00:25:37
  TRACK 26 AUDIO
    TITLE "2:cjc152_2228"
    INDEX 01 00:26:30
  TRACK 27 AUDIO
    TITLE "0:"
    INDEX 01 00:27:34
  TRACK 28 AUDIO
    TITLE "2:cjc152_2229"
    INDEX 01 00:27:61
  TRACK 29 AUDIO
    TITLE "0:"
    INDEX 01 00:28:64
  TRACK 30 AUDIO
    TITLE "2:cjc152_2230"
    INDEX 01 00:29:58
  TRACK 31 AUDIO
    TITLE "0:"
    INDEX 01 00:30:69
  TRACK 32 AUDIO
    TITLE "2:cjc152_2231"
    INDEX 01 00:31:45
  TRACK 33 AUDIO
    TITLE "0:"
    INDEX 01 00:33:50
  TRACK 34 AUDIO
    TITLE "2:cjc152_2232"
    INDEX 01 00:34:43
  TRACK 35 AUDIO
    TITLE "0:"
    INDEX 01 00:35:55
  TRACK 36 AUDIO
    TITLE "2:cjc152_2233"
    INDEX 01 00:36:09
  TRACK 37 AUDIO
    TITLE "0:"
    INDEX 01 00:37:54
  TRACK 38 AUDIO
    TITLE "2:cjc152_2234"
    INDEX 01 00:38:47
  TRACK 39 AUDIO
    TITLE "0:"
    INDEX 01 00:39:41
  TRACK 40 AUDIO
    TITLE "2:cjc152_2235"
    INDEX 01 00:39:72
  TRACK 41 AUDIO
    TITLE "0:"
    INDEX 01 00:41:12
  TRACK 42 AUDIO
    TITLE "2:cjc152_2236"
    INDEX 01 00:42:06
  TRACK 43 AUDIO
    TITLE "0:"
    INDEX 01 00:43:50
  TRACK 44 AUDIO
    TITLE "2:cjc152_2237"
    INDEX 01 00:44:07
  TRACK 45 AUDIO
    TITLE "0:"
    INDEX 01 00:45:04
  TRACK 46 AUDIO
    TITLE "2:cjc152_2238"
    INDEX 01 00:45:71
  TRACK 47 AUDIO
    TITLE "0:"
    INDEX 01 00:47:50
  TRACK 48 AUDIO
    TITLE "2:cjc152_2239"
    INDEX 01 00:48:04
  TRACK 49 AUDIO
    TITLE "0:"
    INDEX 01 00:49:69
  TRACK 50 AUDIO
    TITLE "2:cjc152_2240"
    INDEX 01 00:50:60
  TRACK 51 AUDIO
    TITLE "0:"
    INDEX 01 00:52:18
  TRACK 52 AUDIO
    TITLE "2:cjc152_2241"
    INDEX 01 00:52:47
  TRACK 53 AUDIO
    TITLE "0:"
    INDEX 01 00:54:15
  TRACK 54 AUDIO
    TITLE "2:cjc152_2242"
    INDEX 01 00:55:08
  TRACK 55 AUDIO
    TITLE "0:"
    INDEX 01 00:56:27
  TRACK 56 AUDIO
    TITLE "2:cjc152_2243"
    INDEX 01 00:56:57
  TRACK 57 AUDIO
    TITLE "0:"
    INDEX 01 00:58:30
  TRACK 58 AUDIO
    TITLE "2:cjc152_2244"
    INDEX 01 00:59:24
  TRACK 59 AUDIO
    TITLE "0:"
    INDEX 01 01:00:39
  TRACK 60 AUDIO
    TITLE "2:cjc152_2245"
    INDEX 01 01:00:64
  TRACK 61 AUDIO
    TITLE "0:"
    INDEX 01 01:02:12
  TRACK 62 AUDIO
    TITLE "2:cjc152_2246"
    INDEX 01 01:03:06
  TRACK 63 AUDIO
    TITLE "0:"
    INDEX 01 01:04:47
  TRACK 64 AUDIO
    TITLE "2:cjc152_2247"
    INDEX 01 01:05:03
  TRACK 65 AUDIO
    TITLE "0:"
    INDEX 01 01:06:49
  TRACK 66 AUDIO
    TITLE "2:cjc152_2248"
    INDEX 01 01:07:41
  TRACK 67 AUDIO
    TITLE "0:"
    INDEX 01 01:08:60
  TRACK 68 AUDIO
    TITLE "2:cjc152_2249"
    INDEX 01 01:09:16
  TRACK 69 AUDIO
    TITLE "0:"
    INDEX 01 01:10:41
  TRACK 70 AUDIO
    TITLE "2:cjc152_2250"
    INDEX 01 01:11:35
  TRACK 71 AUDIO
    TITLE "0:"
    INDEX 01 01:12:54
  TRACK 72 AUDIO
    TITLE "2:cjc152_2251"
    INDEX 01 01:13:12
  TRACK 73 AUDIO
    TITLE "0:"
    INDEX 01 01:14:45
  TRACK 74 AUDIO
    TITLE "2:cjc152_2252"
    INDEX 01 01:15:39
  TRACK 75 AUDIO
    TITLE "0:"
    INDEX 01 01:16:60
  TRACK 76 AUDIO
    TITLE "2:cjc152_2253"
    INDEX 01 01:17:14
  TRACK 77 AUDIO
    TITLE "0:"
    INDEX 01 01:19:23
  TRACK 78 AUDIO
    TITLE "2:cjc152_2254"
    INDEX 01 01:20:12
  TRACK 79 AUDIO
    TITLE "0:"
    INDEX 01 01:21:20
  TRACK 80 AUDIO
    TITLE "2:cjc152_2255"
    INDEX 01 01:21:47
  TRACK 81 AUDIO
    TITLE "0:"
    INDEX 01 01:22:48
  TRACK 82 AUDIO
    TITLE "2:cjc152_2256"
    INDEX 01 01:23:42
  TRACK 83 AUDIO
    TITLE "0:"
    INDEX 01 01:25:02
  TRACK 84 AUDIO
    TITLE "2:cjc152_2257"
    INDEX 01 01:25:31
  TRACK 85 AUDIO
    TITLE "0:"
    INDEX 01 01:27:34
  TRACK 86 AUDIO
    TITLE "2:cjc152_2258"
    INDEX 01 01:28:25
  TRACK 87 AUDIO
    TITLE "0:"
    INDEX 01 01:29:46
  TRACK 88 AUDIO
    TITLE "2:cjc152_2259"
    INDEX 01 01:30:01
  TRACK 89 AUDIO
    TITLE "0:"
    INDEX 01 01:30:71
